<svg width="29" height="27" viewBox="0 0 29 27" fill="none" xmlns="http://www.w3.org/2000/svg">
<path d="M20.66 2.1C24.26 2.1 27.18 5.03 27.18 8.65C27.18 10.51 26.41 12.19 25.17 13.38L14.64 24.01L3.92 13.18C2.8 12 2.1 10.4 2.1 8.64C2.1 5.02 5.02 2.09 8.62 2.09C11.33 2.09 13.65 3.75 14.64 6.12C15.61 3.76 17.94 2.09 20.65 2.09M20.65 1C18.25 1 16.05 2.12 14.63 3.97C13.21 2.12 11.01 1 8.61 1C4.41 1 1 4.43 1 8.65C1 10.63 1.75 12.51 3.12 13.95L13.85 24.79L14.62 25.57L15.39 24.79L25.92 14.16C27.41 12.72 28.25 10.76 28.25 8.66C28.25 4.44 24.84 1.01 20.64 1.01L20.65 1Z" fill="#B2891A"/>
<path d="M20.66 2.1C24.26 2.1 27.18 5.03 27.18 8.65C27.18 10.51 26.41 12.19 25.17 13.38L14.64 24.01L3.92 13.18C2.8 12 2.1 10.4 2.1 8.64C2.1 5.02 5.02 2.09 8.62 2.09C11.33 2.09 13.65 3.75 14.64 6.12C15.61 3.76 17.94 2.09 20.65 2.09M20.65 1C18.25 1 16.05 2.12 14.63 3.97C13.21 2.12 11.01 1 8.61 1C4.41 1 1 4.43 1 8.65C1 10.63 1.75 12.51 3.12 13.95L13.85 24.79L14.62 25.57L15.39 24.79L25.92 14.16C27.41 12.72 28.25 10.76 28.25 8.66C28.25 4.44 24.84 1.01 20.64 1.01L20.65 1Z" stroke="#B2891A" stroke-miterlimit="10"/>
<path d="M14.56 5.17001C14.56 5.17001 10.14 -1.02999 3.94002 4.41001C-2.25998 9.85001 8.44002 17.58 8.44002 17.58L14.64 23.87L23.99 14.61C23.99 14.61 29.99 10.5 25.69 4.59001C21.87 -0.679994 15.58 3.74 14.56 5.18V5.17001Z" fill="#B2891A" stroke="#B2891A" stroke-miterlimit="10"/>
</svg>
