<svg width="32" height="32" viewBox="0 0 32 32" fill="none" xmlns="http://www.w3.org/2000/svg">
<path d="M15.84 30.68C24.0359 30.68 30.68 24.0359 30.68 15.84C30.68 7.64409 24.0359 1 15.84 1C7.64409 1 1 7.64409 1 15.84C1 24.0359 7.64409 30.68 15.84 30.68Z" fill="#AE2626" stroke="#AE2626" stroke-width="2"/>
<path d="M11.8948 10.2623C11.3754 9.7429 10.5333 9.7429 10.0139 10.2623C9.49454 10.7817 9.49454 11.6238 10.0139 12.1432L19.871 22.0003C20.3904 22.5197 21.2325 22.5197 21.7519 22.0003C22.2713 21.4809 22.2713 20.6388 21.7519 20.1194L11.8948 10.2623Z" fill="white"/>
<path d="M22.032 12.2265C22.5514 11.7071 22.5514 10.865 22.032 10.3456C21.5126 9.82621 20.6705 9.82621 20.1511 10.3456L10.294 20.2027C9.77463 20.7221 9.77464 21.5642 10.294 22.0836C10.8134 22.603 11.6555 22.603 12.1749 22.0836L22.032 12.2265Z" fill="white"/>
</svg>
