<?xml version="1.0" encoding="UTF-8"?><svg id="Calque_2" xmlns="http://www.w3.org/2000/svg" viewBox="0 0 42.25 34.28"><defs><style>.cls-1{fill:#afbc21;}.cls-2{fill:#fff;}.cls-3{fill:#d5a00e;}</style></defs><g id="logo"><g id="logo_mobile"><rect id="arriere_plan" class="cls-1" x="11.04" y="12.15" width="20.59" height="20.53" transform="translate(4.11 -3.29) rotate(9.77)"/><path id="chapeau" class="cls-3" d="M0,21.01c4.17-1.13,9.19-3.56,13.3-7.51,2.13-2.04,5.27-8.52,5.27-8.52,0,0,4.35,4.52,9.56,7.65s14.11,2.64,14.11,2.64c0,0-5.8-.06-13.18-4.14S18.28,0,18.28,0c0,0-1.22,5.74-6.06,11.39S0,21.01,0,21.01Z"/><g id="germes_de_blé"><path class="cls-2" d="M23.23,17.86s-1.17-1.18-.91-2.21,1.86-2.02,1.86-2.02c0,0,1.11,1.57,.95,2.34s-1.9,1.88-1.9,1.88Z"/><path class="cls-2" d="M22.82,21.28s.3-2.12,1.24-2.78,3.89-1.59,3.89-1.59c0,0-1.03,2.96-2.06,3.79s-3.07,.58-3.07,.58Z"/><path class="cls-2" d="M21.65,25.85s.3-2.12,1.24-2.78,3.89-1.59,3.89-1.59c0,0-1.03,2.96-2.06,3.79s-3.07,.58-3.07,.58Z"/><path class="cls-2" d="M20.45,30.55s.3-2.12,1.24-2.78,3.89-1.59,3.89-1.59c0,0-1.03,2.96-2.06,3.79s-3.07,.58-3.07,.58Z"/><path class="cls-2" d="M19.88,30.47s.56-2.07-.05-3.04-2.96-2.99-2.96-2.99c0,0-.21,3.13,.41,4.3s2.6,1.73,2.6,1.73Z"/><path class="cls-2" d="M21.02,25.75s.56-2.07-.05-3.04-2.96-2.99-2.96-2.99c0,0-.21,3.13,.41,4.3s2.6,1.73,2.6,1.73Z"/><path class="cls-2" d="M22.26,21.19s.56-2.07-.05-3.04-2.96-2.99-2.96-2.99c0,0-.21,3.13,.41,4.3s2.6,1.73,2.6,1.73Z"/></g></g></g></svg>