<?xml version="1.0" encoding="UTF-8"?><svg id="Calque_2" xmlns="http://www.w3.org/2000/svg" viewBox="0 0 93.32 52.35"><defs><style>.cls-1{fill:#afbc21;}.cls-2{fill:#fff;}.cls-3{fill:#d5a00e;}</style></defs><g id="logo"><g id="logo_table"><rect id="arriere_plan" class="cls-1" x="11.04" y="12.15" width="20.59" height="20.53" transform="translate(4.11 -3.29) rotate(9.77)"/><path id="chapeau" class="cls-3" d="M0,21.01c4.17-1.13,9.19-3.56,13.3-7.51,2.13-2.04,5.27-8.52,5.27-8.52,0,0,4.35,4.52,9.56,7.65s14.11,2.64,14.11,2.64c0,0-5.8-.06-13.18-4.14S18.28,0,18.28,0c0,0-1.22,5.74-6.06,11.39C7.39,17.04,0,21.01,0,21.01Z"/><g id="germes_de_blé"><path class="cls-2" d="M23.23,17.86s-1.17-1.18-.91-2.21,1.86-2.02,1.86-2.02c0,0,1.11,1.57,.95,2.34s-1.9,1.88-1.9,1.88Z"/><path class="cls-2" d="M22.82,21.28s.3-2.12,1.24-2.78,3.89-1.59,3.89-1.59c0,0-1.03,2.96-2.06,3.79s-3.07,.58-3.07,.58Z"/><path class="cls-2" d="M21.65,25.85s.3-2.12,1.24-2.78,3.89-1.59,3.89-1.59c0,0-1.03,2.96-2.06,3.79s-3.07,.58-3.07,.58Z"/><path class="cls-2" d="M20.45,30.55s.3-2.12,1.24-2.78,3.89-1.59,3.89-1.59c0,0-1.03,2.96-2.06,3.79s-3.07,.58-3.07,.58Z"/><path class="cls-2" d="M19.88,30.47s.56-2.07-.05-3.04-2.96-2.99-2.96-2.99c0,0-.21,3.13,.41,4.3s2.6,1.73,2.6,1.73Z"/><path class="cls-2" d="M21.02,25.75s.56-2.07-.05-3.04-2.96-2.99-2.96-2.99c0,0-.21,3.13,.41,4.3s2.6,1.73,2.6,1.73Z"/><path class="cls-2" d="M22.26,21.19s.56-2.07-.05-3.04-2.96-2.99-2.96-2.99c0,0-.21,3.13,.41,4.3s2.6,1.73,2.6,1.73Z"/></g><g><path class="cls-3" d="M35.69,20.41h.84v5.78h2.77v.7h-3.6v-6.48Z"/><path class="cls-3" d="M43.58,23.85h-2.52v2.34h2.81v.7h-3.64v-6.48h3.5v.7h-2.66v2.05h2.52v.69Z"/><path class="cls-3" d="M44.84,25.87c.38,.23,.92,.42,1.5,.42,.86,0,1.36-.45,1.36-1.11,0-.61-.35-.95-1.22-1.29-1.06-.38-1.71-.92-1.71-1.84,0-1.01,.84-1.76,2.1-1.76,.66,0,1.14,.15,1.43,.32l-.23,.68c-.21-.12-.64-.31-1.23-.31-.88,0-1.22,.53-1.22,.97,0,.61,.39,.9,1.29,1.25,1.1,.42,1.65,.95,1.65,1.9,0,1-.74,1.87-2.27,1.87-.62,0-1.31-.18-1.65-.41l.21-.7Z"/><path class="cls-3" d="M51.73,20.49c.37-.08,.94-.13,1.53-.13,.84,0,1.37,.14,1.78,.47,.34,.25,.54,.63,.54,1.14,0,.62-.41,1.17-1.1,1.42v.02c.62,.15,1.34,.66,1.34,1.62,0,.56-.22,.98-.55,1.3-.45,.41-1.18,.61-2.24,.61-.58,0-1.02-.04-1.3-.08v-6.37Zm.84,2.65h.76c.88,0,1.4-.46,1.4-1.09,0-.76-.58-1.06-1.42-1.06-.38,0-.61,.03-.74,.06v2.09Zm0,3.1c.16,.03,.4,.04,.7,.04,.87,0,1.66-.32,1.66-1.26,0-.88-.76-1.25-1.67-1.25h-.69v2.47Z"/><path class="cls-3" d="M57.98,24.85l-.67,2.04h-.87l2.2-6.48h1.01l2.21,6.48h-.89l-.69-2.04h-2.3Zm2.12-.65l-.63-1.86c-.14-.42-.24-.81-.34-1.18h-.02c-.1,.38-.2,.78-.33,1.17l-.63,1.87h1.95Z"/><path class="cls-3" d="M62.82,26.88v-6.48h.91l2.08,3.28c.48,.76,.86,1.44,1.16,2.11h.02c-.08-.88-.1-1.66-.1-2.67v-2.71h.79v6.48h-.85l-2.06-3.29c-.45-.72-.88-1.46-1.21-2.16h-.03c.05,.83,.07,1.61,.07,2.68v2.77h-.79Z"/><path class="cls-3" d="M74.49,27.84c-.88-.23-1.73-.49-2.48-.75-.13-.05-.27-.1-.39-.1-1.54-.06-2.85-1.19-2.85-3.28s1.27-3.41,3.02-3.41,2.9,1.37,2.9,3.28c0,1.66-.77,2.73-1.85,3.11v.04c.64,.16,1.35,.32,1.89,.41l-.24,.7Zm-.69-4.22c0-1.3-.67-2.63-2.05-2.63s-2.11,1.31-2.1,2.71c0,1.37,.75,2.61,2.06,2.61s2.09-1.21,2.09-2.69Z"/><path class="cls-3" d="M76.6,20.41v3.84c0,1.45,.64,2.07,1.51,2.07,.96,0,1.58-.63,1.58-2.07v-3.84h.85v3.78c0,1.99-1.05,2.81-2.45,2.81-1.33,0-2.33-.76-2.33-2.77v-3.82h.85Z"/><path class="cls-3" d="M85.34,23.85h-2.52v2.34h2.81v.7h-3.64v-6.48h3.5v.7h-2.66v2.05h2.52v.69Z"/><path class="cls-3" d="M86.6,25.87c.38,.23,.92,.42,1.5,.42,.86,0,1.36-.45,1.36-1.11,0-.61-.35-.95-1.22-1.29-1.06-.38-1.71-.92-1.71-1.84,0-1.01,.84-1.76,2.1-1.76,.66,0,1.14,.15,1.43,.32l-.23,.68c-.21-.12-.64-.31-1.23-.31-.88,0-1.22,.53-1.22,.97,0,.61,.39,.9,1.29,1.25,1.1,.42,1.65,.95,1.65,1.9,0,1-.74,1.87-2.27,1.87-.62,0-1.31-.18-1.65-.41l.21-.7Z"/><path class="cls-3" d="M36.74,36.38l-.67,2.04h-.87l2.2-6.48h1.01l2.21,6.48h-.89l-.69-2.04h-2.3Zm2.12-.65l-.63-1.86c-.14-.42-.24-.81-.34-1.18h-.02c-.1,.38-.2,.78-.33,1.17l-.63,1.87h1.95Z"/><path class="cls-3" d="M41.57,31.94h.84v5.78h2.77v.7h-3.6v-6.48Z"/><path class="cls-3" d="M46.94,31.94v6.48h-.84v-6.48h.84Z"/><path class="cls-3" d="M53.86,35.57c-.05-.9-.11-1.99-.1-2.8h-.03c-.22,.76-.49,1.57-.82,2.46l-1.14,3.14h-.63l-1.05-3.09c-.31-.91-.57-1.75-.75-2.52h-.02c-.02,.81-.07,1.89-.12,2.86l-.17,2.78h-.8l.45-6.48h1.07l1.11,3.13c.27,.8,.49,1.51,.65,2.18h.03c.16-.65,.39-1.37,.68-2.18l1.15-3.13h1.07l.4,6.48h-.82l-.16-2.85Z"/><path class="cls-3" d="M59.48,35.38h-2.52v2.34h2.81v.7h-3.64v-6.48h3.5v.7h-2.66v2.05h2.52v.69Z"/><path class="cls-3" d="M60.86,38.42v-6.48h.91l2.08,3.28c.48,.76,.86,1.44,1.16,2.11h.02c-.08-.88-.1-1.66-.1-2.67v-2.71h.79v6.48h-.85l-2.06-3.29c-.45-.72-.88-1.46-1.21-2.16h-.03c.05,.83,.07,1.61,.07,2.68v2.77h-.79Z"/><path class="cls-3" d="M68.41,32.65h-1.97v-.71h4.8v.71h-1.98v5.77h-.85v-5.77Z"/><path class="cls-3" d="M72.29,36.38l-.67,2.04h-.87l2.2-6.48h1.01l2.21,6.48h-.89l-.69-2.04h-2.3Zm2.12-.65l-.63-1.86c-.14-.42-.24-.81-.34-1.18h-.02c-.1,.38-.2,.78-.33,1.17l-.63,1.87h1.95Z"/><path class="cls-3" d="M77.96,31.94v6.48h-.84v-6.48h.84Z"/><path class="cls-3" d="M79.42,32.03c.42-.09,1.03-.13,1.61-.13,.89,0,1.47,.16,1.87,.53,.33,.29,.51,.73,.51,1.23,0,.86-.54,1.42-1.22,1.65v.03c.5,.17,.8,.63,.95,1.31,.21,.9,.37,1.53,.5,1.78h-.87c-.11-.18-.25-.74-.43-1.55-.19-.89-.54-1.23-1.3-1.26h-.79v2.81h-.84v-6.39Zm.84,2.95h.86c.89,0,1.46-.49,1.46-1.23,0-.84-.61-1.2-1.49-1.21-.4,0-.69,.04-.83,.08v2.36Z"/><path class="cls-3" d="M87.94,35.38h-2.52v2.34h2.81v.7h-3.64v-6.48h3.5v.7h-2.66v2.05h2.52v.69Z"/><path class="cls-3" d="M89.2,37.4c.38,.23,.92,.42,1.5,.42,.86,0,1.36-.45,1.36-1.11,0-.61-.35-.95-1.22-1.29-1.06-.38-1.71-.92-1.71-1.84,0-1.01,.84-1.76,2.1-1.76,.66,0,1.14,.15,1.43,.32l-.23,.68c-.21-.12-.64-.31-1.23-.31-.88,0-1.22,.53-1.22,.97,0,.61,.39,.9,1.29,1.25,1.1,.42,1.65,.95,1.65,1.9,0,1-.74,1.87-2.27,1.87-.62,0-1.31-.18-1.65-.41l.21-.7Z"/><path class="cls-1" d="M35.69,43.56c.51-.08,1.12-.13,1.78-.13,1.2,0,2.06,.28,2.62,.81,.58,.53,.91,1.28,.91,2.33s-.33,1.92-.93,2.52c-.61,.61-1.61,.93-2.86,.93-.6,0-1.1-.03-1.52-.08v-6.37Zm.84,5.73c.21,.04,.52,.05,.85,.05,1.79,0,2.76-1,2.76-2.75,0-1.53-.86-2.5-2.62-2.5-.43,0-.76,.04-.98,.09v5.11Z"/><path class="cls-1" d="M42.92,43.47v3.84c0,1.45,.64,2.07,1.51,2.07,.96,0,1.58-.63,1.58-2.07v-3.84h.85v3.78c0,1.99-1.05,2.81-2.45,2.81-1.33,0-2.33-.76-2.33-2.77v-3.82h.85Z"/><path class="cls-1" d="M55.69,50.9c-.87-.23-1.73-.49-2.48-.75-.13-.05-.27-.1-.39-.1-1.54-.06-2.85-1.19-2.85-3.28s1.27-3.41,3.02-3.41,2.9,1.37,2.9,3.28c0,1.66-.77,2.73-1.85,3.1v.04c.64,.16,1.35,.32,1.89,.41l-.24,.7Zm-.69-4.22c0-1.3-.67-2.63-2.05-2.63s-2.11,1.31-2.1,2.71c0,1.37,.75,2.61,2.06,2.61s2.09-1.21,2.09-2.69Z"/><path class="cls-1" d="M57.8,43.47v3.84c0,1.45,.64,2.07,1.51,2.07,.96,0,1.58-.63,1.58-2.07v-3.84h.85v3.78c0,1.99-1.05,2.81-2.45,2.81-1.33,0-2.33-.76-2.33-2.77v-3.82h.85Z"/><path class="cls-1" d="M66.54,46.91h-2.52v2.34h2.81v.7h-3.64v-6.48h3.5v.7h-2.66v2.05h2.52v.69Zm-.16-4.91l-1.22,1.12h-.69l.89-1.12h1.02Z"/><path class="cls-1" d="M67.91,43.56c.37-.08,.94-.13,1.53-.13,.84,0,1.37,.14,1.78,.47,.34,.25,.54,.63,.54,1.14,0,.62-.41,1.17-1.1,1.42v.02c.62,.15,1.34,.66,1.34,1.62,0,.56-.22,.98-.55,1.3-.45,.41-1.18,.61-2.24,.61-.58,0-1.02-.04-1.3-.08v-6.37Zm.84,2.65h.76c.88,0,1.4-.46,1.4-1.09,0-.76-.58-1.06-1.42-1.06-.38,0-.61,.03-.74,.06v2.09Zm0,3.1c.16,.03,.4,.04,.7,.04,.87,0,1.66-.32,1.66-1.26,0-.88-.76-1.25-1.67-1.25h-.69v2.47Z"/><path class="cls-1" d="M76.48,46.91h-2.52v2.34h2.81v.7h-3.64v-6.48h3.5v.7h-2.66v2.05h2.52v.69Z"/><path class="cls-1" d="M82.38,49.74c-.31,.15-.92,.31-1.71,.31-1.83,0-3.2-1.15-3.2-3.28s1.37-3.4,3.38-3.4c.81,0,1.32,.17,1.54,.29l-.2,.68c-.32-.15-.77-.27-1.31-.27-1.52,0-2.53,.97-2.53,2.67,0,1.59,.91,2.61,2.49,2.61,.51,0,1.03-.11,1.37-.27l.17,.66Z"/></g></g></g></svg>